<svg width="50" height="50" viewBox="0 0 24 24" fill="none" xmlns="http://www.w3.org/2000/svg">
<path fill-rule="evenodd" clip-rule="evenodd" d="M9.8246 2.03981C10.5162 1.78197 11.2552 1.65002 12 1.65002C12.7448 1.65002 13.4838 1.78197 14.1754 2.03981C14.8671 2.29767 15.5003 2.67735 16.0373 3.16057C16.5743 3.64394 17.0051 4.2221 17.3007 4.86439C17.5964 5.50696 17.75 6.19894 17.75 6.90002C17.75 7.31424 17.4142 7.65002 17 7.65002C16.5858 7.65002 16.25 7.31424 16.25 6.90002C16.25 6.41922 16.1449 5.94087 15.9381 5.49151C15.7311 5.04187 15.4253 4.62788 15.0338 4.27551C14.6421 3.92301 14.173 3.63976 13.6514 3.44532C13.1298 3.25087 12.5685 3.15002 12 3.15002C11.4315 3.15002 10.8702 3.25087 10.3486 3.44532C9.82699 3.63976 9.35786 3.92301 8.96619 4.27551C8.57468 4.62788 8.26885 5.04187 8.06191 5.49151C7.8551 5.94087 7.75 6.41922 7.75 6.90002C7.75 7.31424 7.41421 7.65002 7 7.65002C6.58579 7.65002 6.25 7.31424 6.25 6.90002C6.25 6.19894 6.40356 5.50696 6.6993 4.86439C6.9949 4.2221 7.42567 3.64394 7.96274 3.16057C8.49966 2.67735 9.13291 2.29767 9.8246 2.03981Z" fill="#F8BD36"/>
<path fill-rule="evenodd" clip-rule="evenodd" d="M10.7803 12.2197C10.4874 11.9268 10.0126 11.9268 9.71967 12.2197C9.42678 12.5126 9.42678 12.9874 9.71967 13.2803L10.9411 14.5018L9.71968 15.7232C9.42678 16.0161 9.42679 16.491 9.71968 16.7839C10.0126 17.0768 10.4874 17.0768 10.7803 16.7839L12.0018 15.5624L13.2232 16.7839C13.5161 17.0768 13.991 17.0768 14.2839 16.7839C14.5768 16.491 14.5768 16.0161 14.2839 15.7232L13.0624 14.5018L14.2839 13.2803C14.5768 12.9874 14.5768 12.5126 14.2839 12.2197C13.991 11.9268 13.5161 11.9268 13.2232 12.2197L12.0018 13.4411L10.7803 12.2197Z" fill="#F8BD36"/>
<path fill-rule="evenodd" clip-rule="evenodd" d="M2.06099 12.3046C1.61318 9.42489 3.84026 6.82471 6.75458 6.82471H17.252C20.1663 6.82471 22.3934 9.42489 21.9456 12.3046L20.9855 18.4787C20.6256 20.7924 18.6334 22.4988 16.2919 22.4988H7.7147C5.37315 22.4988 3.38091 20.7924 3.02111 18.4787L2.06099 12.3046ZM6.75458 8.32471C4.76057 8.32471 3.23678 10.1038 3.54318 12.0741L4.50329 18.2482C4.74948 19.8313 6.11259 20.9988 7.7147 20.9988H16.2919C17.894 20.9988 19.2571 19.8313 19.5033 18.2482L20.4634 12.0741C20.7698 10.1038 19.246 8.32471 17.252 8.32471H6.75458Z" fill="#F8BD36"/>
</svg>
