<svg width="24" height="24" viewBox="0 0 24 24" fill="none" xmlns="http://www.w3.org/2000/svg">
<path fill-rule="evenodd" clip-rule="evenodd" d="M2.25 17.5C2.25 17.0858 2.58579 16.75 3 16.75H21C21.4142 16.75 21.75 17.0858 21.75 17.5C21.75 17.9142 21.4142 18.25 21 18.25H3C2.58579 18.25 2.25 17.9142 2.25 17.5Z" fill="#EBD381"/>
<path fill-rule="evenodd" clip-rule="evenodd" d="M5.52346 4.05736C5.7248 3.28722 6.42054 2.75 7.21656 2.75H17.5555C17.8966 2.75 18.1948 2.98024 18.2811 3.3103L22.7256 20.3103C22.8303 20.711 22.5904 21.1208 22.1896 21.2256C21.7889 21.3304 21.3791 21.0904 21.2743 20.6897L17.5555 6.46517L13.8367 20.6897C13.7319 21.0904 13.3221 21.3304 12.9213 21.2256C12.5206 21.1208 12.2807 20.711 12.3854 20.3103L12.9241 18.25H3.36338L2.72555 20.6897C2.62078 21.0904 2.21098 21.3304 1.81024 21.2256C1.40949 21.1208 1.16956 20.711 1.27433 20.3103L5.52346 4.05736Z" fill="#EBD381"/>
<path fill-rule="evenodd" clip-rule="evenodd" d="M8.25 8.5C8.25 8.08579 8.58579 7.75 9 7.75H12.5C12.9142 7.75 13.25 8.08579 13.25 8.5C13.25 8.91421 12.9142 9.25 12.5 9.25H9C8.58579 9.25 8.25 8.91421 8.25 8.5Z" fill="#818FEB"/>
<path fill-rule="evenodd" clip-rule="evenodd" d="M6.25 12C6.25 11.5858 6.58579 11.25 7 11.25H12.5C12.9142 11.25 13.25 11.5858 13.25 12C13.25 12.4142 12.9142 12.75 12.5 12.75H7C6.58579 12.75 6.25 12.4142 6.25 12Z" fill="#818FEB"/>
</svg>
