<svg width="24" height="24" viewBox="0 0 24 24" fill="none" xmlns="http://www.w3.org/2000/svg">
<path fill-rule="evenodd" clip-rule="evenodd" d="M6 3.75C4.75736 3.75 3.75 4.75736 3.75 6V7.5C3.75 7.91421 3.41421 8.25 3 8.25C2.58579 8.25 2.25 7.91421 2.25 7.5V6C2.25 3.92893 3.92893 2.25 6 2.25H7.5C7.91421 2.25 8.25 2.58579 8.25 3C8.25 3.41421 7.91421 3.75 7.5 3.75H6ZM15.75 3C15.75 2.58579 16.0858 2.25 16.5 2.25H18C20.0711 2.25 21.75 3.92893 21.75 6V7.5C21.75 7.91421 21.4142 8.25 21 8.25C20.5858 8.25 20.25 7.91421 20.25 7.5V6C20.25 4.75736 19.2426 3.75 18 3.75H16.5C16.0858 3.75 15.75 3.41421 15.75 3ZM3 15.75C3.41421 15.75 3.75 16.0858 3.75 16.5V18C3.75 19.2426 4.75736 20.25 6 20.25H7.5C7.91421 20.25 8.25 20.5858 8.25 21C8.25 21.4142 7.91421 21.75 7.5 21.75H6C3.92893 21.75 2.25 20.0711 2.25 18V16.5C2.25 16.0858 2.58579 15.75 3 15.75ZM21 15.75C21.4142 15.75 21.75 16.0858 21.75 16.5V18C21.75 20.0711 20.0711 21.75 18 21.75H16.5C16.0858 21.75 15.75 21.4142 15.75 21C15.75 20.5858 16.0858 20.25 16.5 20.25H18C19.2426 20.25 20.25 19.2426 20.25 18V16.5C20.25 16.0858 20.5858 15.75 21 15.75Z" fill="#333333"/>
<path fill-rule="evenodd" clip-rule="evenodd" d="M3.25 12C3.25 11.5858 3.58579 11.25 4 11.25H20C20.4142 11.25 20.75 11.5858 20.75 12C20.75 12.4142 20.4142 12.75 20 12.75H4C3.58579 12.75 3.25 12.4142 3.25 12Z" fill="#333333"/>
</svg>
