<svg width="24" height="27" viewBox="0 0 24 27" fill="none" xmlns="http://www.w3.org/2000/svg">
<path fill-rule="evenodd" clip-rule="evenodd" d="M9.8246 2.03981C10.5162 1.78197 11.2552 1.65002 12 1.65002C12.7448 1.65002 13.4838 1.78197 14.1754 2.03981C14.8671 2.29767 15.5003 2.67735 16.0373 3.16057C16.5743 3.64394 17.0051 4.2221 17.3007 4.86439C17.5964 5.50696 17.75 6.19894 17.75 6.90002C17.75 7.31424 17.4142 7.65002 17 7.65002C16.5858 7.65002 16.25 7.31424 16.25 6.90002C16.25 6.41922 16.1449 5.94087 15.9381 5.49151C15.7311 5.04187 15.4253 4.62788 15.0338 4.27551C14.6421 3.92301 14.173 3.63976 13.6514 3.44532C13.1298 3.25087 12.5685 3.15002 12 3.15002C11.4315 3.15002 10.8702 3.25087 10.3486 3.44532C9.82699 3.63976 9.35786 3.92301 8.96619 4.27551C8.57468 4.62788 8.26885 5.04187 8.06191 5.49151C7.8551 5.94087 7.75 6.41922 7.75 6.90002C7.75 7.31424 7.41421 7.65002 7 7.65002C6.58579 7.65002 6.25 7.31424 6.25 6.90002C6.25 6.19894 6.40356 5.50696 6.6993 4.86439C6.9949 4.2221 7.42567 3.64394 7.96274 3.16057C8.49966 2.67735 9.13291 2.29767 9.8246 2.03981Z" fill="#EBD381"/>
<path fill-rule="evenodd" clip-rule="evenodd" d="M2.06099 12.3046C1.61318 9.42489 3.84026 6.82471 6.75458 6.82471H17.252C20.1663 6.82471 22.3934 9.42489 21.9456 12.3046L20.9855 18.4787C20.6256 20.7924 18.6334 22.4988 16.2919 22.4988H7.7147C5.37315 22.4988 3.38091 20.7924 3.02111 18.4787L2.06099 12.3046ZM6.75458 8.32471C4.76057 8.32471 3.23678 10.1038 3.54318 12.0741L4.50329 18.2482C4.74948 19.8313 6.11259 20.9988 7.7147 20.9988H16.2919C17.894 20.9988 19.2571 19.8313 19.5033 18.2482L20.4634 12.0741C20.7698 10.1038 19.246 8.32471 17.252 8.32471H6.75458Z" fill="#EBD381"/>
<path fill-rule="evenodd" clip-rule="evenodd" d="M9 15.75C9.41421 15.75 9.75 15.4142 9.75 15C9.75 14.7045 9.8082 14.4119 9.92127 14.139C10.0343 13.866 10.2001 13.6179 10.409 13.409C10.6179 13.2001 10.866 13.0343 11.139 12.9213C11.4119 12.8082 11.7045 12.75 12 12.75C12.2955 12.75 12.5881 12.8082 12.861 12.9213C13.134 13.0343 13.3821 13.2001 13.591 13.409C13.7999 13.6179 13.9657 13.866 14.0787 14.139C14.1918 14.4119 14.25 14.7045 14.25 15C14.25 15.4142 14.5858 15.75 15 15.75C15.4142 15.75 15.75 15.4142 15.75 15C15.75 14.5075 15.653 14.0199 15.4645 13.5649C15.2761 13.11 14.9999 12.6966 14.6517 12.3483C14.3034 12.0001 13.89 11.7239 13.4351 11.5355C12.9801 11.347 12.4925 11.25 12 11.25C11.5075 11.25 11.0199 11.347 10.5649 11.5355C10.11 11.7239 9.69657 12.0001 9.34835 12.3483C9.00013 12.6966 8.72391 13.11 8.53545 13.5649C8.347 14.0199 8.25 14.5075 8.25 15C8.25 15.4142 8.58579 15.75 9 15.75Z" fill="#EBD381"/>
</svg>
